<?xml version="1.0" encoding="UTF-8" standalone="no"?>
<!-- Created with Inkscape (http://www.inkscape.org/) -->

<svg
   xmlns:osb="http://www.openswatchbook.org/uri/2009/osb"
   xmlns:dc="http://purl.org/dc/elements/1.1/"
   xmlns:cc="http://creativecommons.org/ns#"
   xmlns:rdf="http://www.w3.org/1999/02/22-rdf-syntax-ns#"
   xmlns:svg="http://www.w3.org/2000/svg"
   xmlns="http://www.w3.org/2000/svg"
   xmlns:sodipodi="http://sodipodi.sourceforge.net/DTD/sodipodi-0.dtd"
   xmlns:inkscape="http://www.inkscape.org/namespaces/inkscape"
   version="1.1"
   id="svg3794"
   width="1122.5601"
   height="793.76001"
   viewBox="0 0 1122.5601 793.76001"
   sodipodi:docname="logo3.svg"
   inkscape:version="0.92.3 (2405546, 2018-03-11)">
  <metadata
     id="metadata3800">
    <rdf:RDF>
      <cc:Work
         rdf:about="">
        <dc:format>image/svg+xml</dc:format>
        <dc:type
           rdf:resource="http://purl.org/dc/dcmitype/StillImage" />
        <dc:title></dc:title>
      </cc:Work>
    </rdf:RDF>
  </metadata>
  <defs
     id="defs3798">
    <linearGradient
       id="linearGradient843"
       osb:paint="solid">
      <stop
         style="stop-color:#000000;stop-opacity:1;"
         offset="0"
         id="stop841" />
    </linearGradient>
  </defs>
  <sodipodi:namedview
     pagecolor="#ffffff"
     bordercolor="#666666"
     borderopacity="1"
     objecttolerance="10"
     gridtolerance="10"
     guidetolerance="10"
     inkscape:pageopacity="0"
     inkscape:pageshadow="2"
     inkscape:window-width="1920"
     inkscape:window-height="1017"
     id="namedview3796"
     showgrid="false"
     inkscape:zoom="0.7554255"
     inkscape:cx="177.23634"
     inkscape:cy="390.58063"
     inkscape:window-x="-8"
     inkscape:window-y="-8"
     inkscape:window-maximized="1"
     inkscape:current-layer="svg3794">
    <inkscape:grid
       type="xygrid"
       id="grid6375" />
  </sodipodi:namedview>
  <g
     inkscape:groupmode="layer"
     id="layer3"
     inkscape:label="Line" />
  <g
     id="g868"
     inkscape:export-xdpi="13.722717"
     inkscape:export-ydpi="13.722717">
    <ellipse
       ry="44.461792"
       rx="43.057735"
       cy="206.39632"
       cx="340.71774"
       id="path3811"
       style="fill:#ffffff;fill-opacity:1;stroke:#000000;stroke-opacity:1" />
    <path
       sodipodi:nodetypes="ccsssssscscc"
       inkscape:connector-curvature="0"
       id="path6132"
       d="m 290.1717,292.04378 -41.00558,122.60146 c 0,0 -17.34996,31.03036 -22.64499,68.35024 -1.70937,12.04783 7.48831,37.44151 6.55227,44.92981 -0.93604,7.4883 -3.27613,58.91764 -2.80811,83.72264 0.16752,8.87845 7.86325,42.49786 10.29641,34.21812 20.75344,-70.62146 28.08113,-114.19661 32.76132,-133.8534 4.68019,-19.65679 17.49616,-22.64551 47.73793,-120.74887 9.07022,-29.42352 17.78472,-65.52265 17.78472,-65.52265 3.80309,1.92144 90.62095,61.32358 100.15603,61.7785 25.9983,1.24038 -73.28525,-87.70051 -124.33241,-121.73195 0,0 -14.20117,-5.56919 -24.49759,26.2561 z"
       style="fill:#ffffff;fill-opacity:1;stroke:#000000;stroke-width:1px;stroke-linecap:butt;stroke-linejoin:miter;stroke-opacity:1" />
    <path
       sodipodi:nodetypes="cssscscscc"
       inkscape:connector-curvature="0"
       id="path6277"
       d="m 220.91376,526.46201 c 0,0 -0.37734,1.70623 -6.69221,17.97738 -9.69794,24.98813 -16.40264,29.90098 -35.51432,66.64212 -14.35211,27.59113 -5.01044,26.45669 0.66188,21.18011 28.46078,-26.47515 46.33151,-46.99338 46.33151,-46.99338 0,0 1.98563,-18.5326 1.98563,-28.46078 0,-9.92818 1.98564,-27.79891 1.98564,-27.79891 0,0 0.3184,-2.70837 -1.98564,-13.89945 l -0.6785,-5.6357 z"
       style="fill:#ffffff;fill-opacity:1;stroke:#000000;stroke-width:1px;stroke-linecap:butt;stroke-linejoin:miter;stroke-opacity:1" />
    <path
       sodipodi:nodetypes="cscc"
       inkscape:connector-curvature="0"
       id="path6303"
       d="m 342.85314,279.48031 c 0,0 152.83861,90.72713 115.82876,84.72046 C 443.04917,361.66359 419,349.76001 403.74597,335.07811 Z"
       style="fill:#ffffff;stroke:#000000;stroke-width:1px;stroke-linecap:butt;stroke-linejoin:miter;stroke-opacity:1;fill-opacity:1" />
    <path
       sodipodi:nodetypes="ccccccccccccccc"
       inkscape:connector-curvature="0"
       id="path6305"
       d="m 460,373.76001 h 65 l 55.3434,172.88603 h 211.54453 l 61.11661,-158.73869 17.51056,-0.38772 v 0 L 801.24831,565.3668 H 569.11095 L 512.94869,389.3917 469.56001,389.17433 465,398.76001 h -20 l 5,-25 z"
       style="fill:#ffffff;stroke:#000000;stroke-width:1px;stroke-linecap:butt;stroke-linejoin:miter;stroke-opacity:1;fill-opacity:1" />
    <path
       d="m 614.04102,585.95898 a 33.697357,33.697357 0 0 0 -33.69727,33.69727 33.697357,33.697357 0 0 0 33.69727,33.69727 33.697357,33.697357 0 0 0 33.69726,-33.69727 33.697357,33.697357 0 0 0 -33.69726,-33.69727 z"
       id="path6307"
       style="fill:#ffffff;fill-opacity:1;stroke:#000000;stroke-opacity:1"
       inkscape:original="M 614.04102 585.95898 A 33.697357 33.697357 0 0 0 580.34375 619.65625 A 33.697357 33.697357 0 0 0 614.04102 653.35352 A 33.697357 33.697357 0 0 0 647.73828 619.65625 A 33.697357 33.697357 0 0 0 614.04102 585.95898 z "
       inkscape:radius="0"
       sodipodi:type="inkscape:offset" />
    <path
       transform="translate(161.93453,0.93603776)"
       sodipodi:type="inkscape:offset"
       inkscape:radius="0"
       inkscape:original="M 614.04102 585.95898 A 33.697357 33.697357 0 0 0 580.34375 619.65625 A 33.697357 33.697357 0 0 0 614.04102 653.35352 A 33.697357 33.697357 0 0 0 647.73828 619.65625 A 33.697357 33.697357 0 0 0 614.04102 585.95898 z "
       style="fill:#ffffff;fill-opacity:1;stroke:#000000;stroke-opacity:1"
       id="path6311"
       d="m 614.04102,585.95898 a 33.697357,33.697357 0 0 0 -33.69727,33.69727 33.697357,33.697357 0 0 0 33.69727,33.69727 33.697357,33.697357 0 0 0 33.69726,-33.69727 33.697357,33.697357 0 0 0 -33.69726,-33.69727 z" />
    <ellipse
       ry="37.441509"
       rx="38.377548"
       cy="293.91586"
       cx="636.50568"
       id="path6313"
       style="fill:#ffffff;fill-opacity:1;stroke:#000000;stroke-opacity:1" />
    <path
       sodipodi:nodetypes="csscssscsscsssccc"
       inkscape:connector-curvature="0"
       id="path6315"
       d="m 654.39908,458.88562 -11.34115,26.91797 c 0,0 47.26948,-26.06985 73.01095,-25.27302 12.64429,0.39141 82.55644,83.12575 69.03278,81.43528 -7.4883,-0.93605 -16.01163,1.34305 -44.6958,-22.4649 -27.197,-22.57359 -32.60559,-25.99654 -32.60559,-25.99654 -0.1046,0.54915 -20.86811,11.10132 -37.59724,27.86862 -23.35672,23.41001 -48.6244,22.78423 -61.31048,18.95475 -25.15199,-16.87283 -27.7422,-35.3499 -27.61311,-58.26834 0.13922,-24.71602 6.73734,-21.31496 6.76964,-37.27117 0.0568,-28.07808 -4.89756,-83.4777 1.6547,-90.966 6.55227,-7.4883 17.6749,-15.1502 28.08113,-14.04057 25.48489,2.71748 36.50548,14.50859 36.50548,14.50859 0,0 28.40776,28.74954 53.26898,43.96538 0.90013,0.55091 -3.1805,11.54238 -7.34764,16.1442 -13.81596,-9.79547 -46.85738,-34.36854 -45.92134,-24.07213 l 2.12775,47.6725"
       style="fill:#ffffff;stroke:#000000;stroke-width:1px;stroke-linecap:butt;stroke-linejoin:miter;stroke-opacity:1;fill-opacity:1" />
    <path
       inkscape:connector-curvature="0"
       id="path6319"
       d="m 612.23774,387.36653 16.54697,47.65526"
       style="fill:none;stroke:#000000;stroke-width:1px;stroke-linecap:butt;stroke-linejoin:miter;stroke-opacity:1" />
    <path
       sodipodi:nodetypes="cc"
       inkscape:connector-curvature="0"
       id="path6321"
       d="m 591.7195,397.29471 20.02183,49.47542"
       style="fill:none;stroke:#000000;stroke-width:1px;stroke-linecap:butt;stroke-linejoin:miter;stroke-opacity:1" />
    <path
       sodipodi:nodetypes="cc"
       inkscape:connector-curvature="0"
       id="path6323"
       d="m 622.16592,457.52566 c 14.6704,3.31437 19.59895,1.36837 35.09906,1.36391"
       style="fill:none;stroke:#000000;stroke-width:1px;stroke-linecap:butt;stroke-linejoin:miter;stroke-opacity:1" />
    <path
       sodipodi:nodetypes="cc"
       inkscape:connector-curvature="0"
       id="path6325"
       d="m 628.78471,435.02179 36.20946,6.14244 c 0,0 4.03881,-0.0564 5.32586,8.25089"
       style="fill:#ffffff;fill-opacity:1;stroke:#000000;stroke-width:1px;stroke-linecap:butt;stroke-linejoin:miter;stroke-opacity:1" />
    <path
       inkscape:connector-curvature="0"
       id="path6327"
       d="m 611.74133,446.77013 c 0,0 2.31658,7.77708 10.42459,10.75553"
       style="fill:none;stroke:#000000;stroke-width:1px;stroke-linecap:butt;stroke-linejoin:miter;stroke-opacity:1" />
    <path
       sodipodi:nodetypes="cccccccc"
       inkscape:connector-curvature="0"
       id="path6331"
       d="m 684.71161,462.40265 c -1.23631,-0.54327 -2.31385,-1.19994 -1.40405,-3.27614 l 33.69735,-73.94698 c 1.42623,-3.18744 3.30752,-4.55467 5.61623,-4.21217 l 38.84557,7.4883 c 0.6641,0.37855 1.38287,0.35526 0.46802,3.74416 l -36.79799,69.85182 c -1.26873,0.58909 -1.53387,0.1985 -2.39859,0.234"
       style="fill:#ffffff;fill-opacity:1;stroke:#000000;stroke-width:1px;stroke-linecap:butt;stroke-linejoin:miter;stroke-opacity:1" />
    <path
       sodipodi:nodetypes="cccc"
       inkscape:connector-curvature="0"
       id="path6333"
       d="m 746.02209,428.23727 -8.42434,16.84868 c 5.01201,2.45227 9.56468,3.0551 12.40225,-3.24774 1.74971,-8.57601 -1.33227,-10.80173 -3.97791,-13.60094 z"
       style="fill:#ffffff;stroke:#000000;stroke-width:1px;stroke-linecap:butt;stroke-linejoin:miter;stroke-opacity:1;fill-opacity:1" />
    <path
       inkscape:connector-curvature="0"
       id="path6335"
       d="m 684.71161,462.40265 9.10267,0.0871"
       style="fill:none;stroke:#000000;stroke-width:1px;stroke-linecap:butt;stroke-linejoin:miter;stroke-opacity:1" />
    <path
       sodipodi:nodetypes="cscccsc"
       inkscape:connector-curvature="0"
       id="path6377"
       d="m 727.30133,463.80671 c 0,0 13.57013,-11.12449 21.53575,-4.06417 13.91699,12.33532 42.58284,61.39648 44.2209,65.14063 1.63807,3.74415 1.63807,7.4883 1.63807,7.4883 -5.53909,-0.42858 -8.5922,-2.10016 -11.70047,-3.74415 0,0 -17.79537,-26.78343 -28.16631,-37.45815 -8.61785,-8.87028 -27.52794,-27.36246 -27.52794,-27.36246 z"
       style="fill:#ffffff;stroke:#000000;stroke-width:1px;stroke-linecap:butt;stroke-linejoin:miter;stroke-opacity:1;fill-opacity:1" />
    <text
       id="text6439"
       y="746.3609"
       x="272.38824"
       style="font-style:normal;font-weight:normal;font-size:111.09700012px;line-height:1.25;font-family:sans-serif;letter-spacing:0px;word-spacing:0px;fill:#ffffff;fill-opacity:0;stroke:none;stroke-width:2.77742529;"
       xml:space="preserve"><tspan
         style="font-style:normal;font-variant:normal;font-weight:normal;font-stretch:normal;font-family:'D3 Euronism Bold';-inkscape-font-specification:'D3 Euronism Bold, ';stroke-width:2.77742529;fill:#ffffff;fill-opacity:1;stroke:#000000;stroke-opacity:0"
         y="746.3609"
         x="272.38824"
         id="tspan6437"
         sodipodi:role="line">ADDEV</tspan></text>
    <path
       sodipodi:nodetypes="ccccccc"
       inkscape:connector-curvature="0"
       id="path835"
       d="m 685.02432,451.08065 -60.9565,-5.88005 -4.30221,2.64752 4.30221,3.64033 6.61878,3.30939 50.63188,6.20075 c 0.22124,-3.50099 2.27632,-5.20867 3.70584,-9.91794 z"
       style="fill:#ffffff;stroke:#000000;stroke-width:1px;stroke-linecap:butt;stroke-linejoin:miter;stroke-opacity:1;fill-opacity:1" />
  </g>
</svg>
